Coordinates
version=1
nRows=20
nColumns=38
inDegrees=no

Units are S.I. units (second, meters, Newtons, ...)
If the header above contains a line with 'inDegrees', this indicates whether rotational values are in degrees (yes) or radians (no).

endheader
time	pelvis_tilt	pelvis_list	pelvis_rotation	pelvis_tx	pelvis_ty	pelvis_tz	hip_flexion_r	hip_adduction_r	hip_rotation_r	knee_angle_r	ankle_angle_r	subtalar_angle_r	mtp_angle_r	hip_flexion_l	hip_adduction_l	hip_rotation_l	knee_angle_l	ankle_angle_l	subtalar_angle_l	mtp_angle_l	lumbar_extension	lumbar_bending	lumbar_rotation	arm_flex_r	arm_add_r	arm_rot_r	elbow_flex_r	pro_sup_r	wrist_flex_r	wrist_dev_r	arm_flex_l	arm_add_l	arm_rot_l	elbow_flex_l	pro_sup_l	wrist_flex_l	wrist_dev_l
3.73	1.15028	1.54016	-2.5839	0.837223	0.108171	0.96131	-0.098938	0.0123787	0.0837991	0.0606627	0.0729093	0	0	0.502264	-0.0217247	-0.0584127	0.870017	0.167946	0	0	-0.00606151	0.04869	0.154861	-0.136083	-0.0849177	-0.160755	1.46396	1.5708	0	0	-0.446187	-0.00755973	-0.0420613	0.680026	0.681365	0	0
3.74	1.21916	1.53999	-2.66326	0.837417	0.102323	0.960852	-0.106578	0.00971417	0.0929244	0.0540597	0.07473	0	0	0.500011	-0.0280054	-0.074916	0.814769	0.154812	0	0	-0.0047044	0.0465648	0.152331	-0.144961	-0.0845251	-0.158027	1.47236	1.5708	0	0	-0.447261	-0.00893541	-0.0474339	0.683697	0.686426	0	0
3.75	1.24274	1.53833	-2.69902	0.837568	0.0964442	0.960485	-0.117477	0.00573076	0.10798	0.0444175	0.0752506	0	0	0.493874	-0.0342982	-0.0925987	0.757572	0.139843	0	0	-0.00590445	0.0435446	0.151129	-0.153624	-0.0841106	-0.155729	1.48193	1.5708	0	0	-0.448884	-0.0102362	-0.0540498	0.690581	0.688105	0	0
3.76	1.27758	1.53803	-2.74393	0.83805	0.0904628	0.959967	-0.12638	0.00275231	0.118091	0.0375256	0.0772504	0	0	0.488737	-0.0397525	-0.105019	0.701117	0.124806	0	0	-0.00533189	0.0418383	0.147698	-0.163273	-0.0838177	-0.154104	1.49217	1.5708	0	0	-0.450455	-0.0112824	-0.0604404	0.695699	0.693102	0	0
3.77	1.30651	1.53853	-2.78148	0.83883	0.0843453	0.959369	-0.135168	0.000513328	0.126239	0.0312225	0.0793967	0	0	0.483542	-0.0445579	-0.111856	0.645584	0.112436	0	0	-0.0040895	0.0413761	0.143346	-0.174459	-0.0833982	-0.154445	1.50394	1.5708	0	0	-0.451489	-0.0122777	-0.0657523	0.699426	0.697595	0	0
3.78	1.3375	1.53956	-2.81994	0.839839	0.0781191	0.958678	-0.143601	-0.00122182	0.1326	0.0255693	0.0820764	0	0	0.478477	-0.0487166	-0.113046	0.592149	0.105143	0	0	-0.00211044	0.0416132	0.137928	-0.186558	-0.0828159	-0.15585	1.51625	1.5708	0	0	-0.453121	-0.0132122	-0.0702466	0.703089	0.701937	0	0
3.79	1.4602	1.53847	-2.94867	0.84077	0.0724545	0.958075	-0.147509	-0.00551991	0.138124	0.0227383	0.0853053	0	0	0.480442	-0.0504413	-0.100808	0.542039	0.0932176	0	0	0.00100479	0.0379449	0.130427	-0.196297	-0.0805531	-0.156502	1.52482	1.5708	0	0	-0.452414	-0.0156561	-0.0736147	0.704247	0.705822	0	0
3.8	1.46527	1.53839	-2.96408	0.841778	0.0660468	0.957361	-0.156089	-0.00865677	0.146912	0.0188908	0.0888907	0	0	0.4715	-0.0546938	-0.0986737	0.489657	0.0942996	0	0	0.00165608	0.0372792	0.126622	-0.20819	-0.0802119	-0.156852	1.53699	1.5708	0	0	-0.454505	-0.0162734	-0.0787533	0.707003	0.710448	0	0
3.81	1.3854	1.53978	-2.89922	0.842817	0.0590303	0.95645	-0.16708	-0.0106743	0.15833	0.0158759	0.0938374	0	0	0.455115	-0.0618128	-0.106128	0.437814	0.104666	0	0	0.000979315	0.0398544	0.127252	-0.222166	-0.0817581	-0.157425	1.5526	1.5708	0	0	-0.458966	-0.0152141	-0.0848929	0.711994	0.715379	0	0
3.82	1.39234	1.53896	-2.92065	0.843682	0.0525635	0.95572	-0.173306	-0.0153566	0.16867	0.0160363	0.0991934	0	0	0.445338	-0.0676033	-0.101862	0.389945	0.105448	0	0	0.00193384	0.0382649	0.126998	-0.233628	-0.0811081	-0.157755	1.56355	1.5708	0	0	-0.461537	-0.0153742	-0.0913974	0.715257	0.721209	0	0
3.83	1.37809	1.53755	-2.92195	0.844491	0.0460091	0.955047	-0.179979	-0.0207238	0.179068	0.0168601	0.104844	0	0	0.434595	-0.0739328	-0.0970059	0.345478	0.10419	0	0	0.00261602	0.0361887	0.126715	-0.244399	-0.0799655	-0.157271	1.57347	1.5708	0	0	-0.464134	-0.0153191	-0.0985071	0.717453	0.72765	0	0
3.84	1.3576	1.5355	-2.91753	0.845349	0.0393256	0.954388	-0.186832	-0.027034	0.189233	0.0180556	0.110793	0	0	0.423722	-0.0802933	-0.0914395	0.305152	0.100885	0	0	0.00352668	0.0335	0.125844	-0.254846	-0.0789728	-0.155849	1.58296	1.5708	0	0	-0.46689	-0.015083	-0.105993	0.718529	0.733834	0	0
3.85	1.33029	1.5323	-2.90743	0.846242	0.0324704	0.953801	-0.193594	-0.0349696	0.199752	0.0205586	0.117264	0	0	0.411753	-0.0865052	-0.0852384	0.267676	0.0942803	0	0	0.00411301	0.0294741	0.125705	-0.265722	-0.0777428	-0.154882	1.5933	1.5708	0	0	-0.47014	-0.0147814	-0.114491	0.719675	0.741948	0	0
3.86	1.31738	1.52876	-2.91261	0.847198	0.0255781	0.953182	-0.198492	-0.0436292	0.209752	0.0251416	0.124614	0	0	0.400547	-0.0932343	-0.0777673	0.234603	0.0857431	0	0	0.00526337	0.024854	0.126274	-0.277107	-0.0766186	-0.154175	1.60443	1.5708	0	0	-0.473685	-0.0142426	-0.123294	0.720528	0.750201	0	0
3.87	1.30396	1.52515	-2.91741	0.848239	0.0186929	0.952571	-0.202709	-0.0526757	0.219734	0.030916	0.132586	0	0	0.389963	-0.100462	-0.0688332	0.206456	0.0760061	0	0	0.0063928	0.0200881	0.12674	-0.288865	-0.0759702	-0.153477	1.61623	1.5708	0	0	-0.476886	-0.0137471	-0.13212	0.720895	0.757975	0	0
3.88	1.29001	1.52155	-2.9216	0.849407	0.0118038	0.951964	-0.206384	-0.0618973	0.229805	0.0375201	0.140265	0	0	0.380356	-0.108009	-0.0594371	0.183634	0.0659182	0	0	0.00758378	0.0153982	0.126942	-0.300881	-0.0758924	-0.15307	1.62871	1.5708	0	0	-0.479544	-0.0133189	-0.14021	0.720116	0.764298	0	0
3.89	1.31914	1.51901	-2.9715	0.850552	0.00530219	0.951192	-0.203852	-0.0708425	0.242791	0.048972	0.149334	0	0	0.374565	-0.117459	-0.0507865	0.166538	0.0557066	0	0	0.0107698	0.0117497	0.12998	-0.312916	-0.0760251	-0.154258	1.64177	1.5708	0	0	-0.480382	-0.011901	-0.149656	0.716359	0.774658	0	0
3.9	1.25457	1.51407	-2.92042	0.852176	-0.00208321	0.950762	-0.212428	-0.0804463	0.24759	0.0542869	0.155547	0	0	0.364041	-0.123145	-0.037693	0.154488	0.04946	0	0	0.00940462	0.00543981	0.124739	-0.325219	-0.0745672	-0.155072	1.65425	1.5708	0	0	-0.484095	-0.0126479	-0.156395	0.716657	0.777569	0	0
3.91	1.24744	1.51056	-2.92909	0.853881	-0.0090122	0.950057	-0.213993	-0.0895551	0.255562	0.0643203	0.163332	0	0	0.358955	-0.130376	-0.0255993	0.148913	0.0454787	0	0	0.0107931	0.000475998	0.122367	-0.337776	-0.0739509	-0.15797	1.66674	1.5708	0	0	-0.486614	-0.0134709	-0.159673	0.71641	0.765874	0	0
3.92	1.24756	1.50719	-2.94457	0.855842	-0.0159361	0.949297	-0.214458	-0.0989114	0.26361	0.0752119	0.17183	0	0	0.355622	-0.137205	-0.0131297	0.148498	0.0443834	0	0	0.0126831	-0.00419056	0.119555	-0.350361	-0.0744434	-0.161044	1.67915	1.5708	0	0	-0.487873	-0.0132143	-0.166886	0.712975	0.771837	0	0
